<svg width="60" height="16" viewBox="0 0 60 16" fill="none" xmlns="http://www.w3.org/2000/svg">
<path fill-rule="evenodd" clip-rule="evenodd" d="M10.9888 7.99996C10.9888 9.75275 10.5618 11.0899 9.70786 12.0112C8.85397 12.9325 7.64048 13.3932 6.06742 13.3932H3.03375V2.60668H6.06742C7.64048 2.60668 8.85397 3.06742 9.70786 3.98873C10.5618 4.91004 10.9888 6.24716 10.9888 7.99996ZM13.2135 3.75275C12.599 2.55445 11.6889 1.62921 10.4832 0.977468C9.27707 0.325808 7.82022 0 6.11236 0H0V16H6.11236C7.82022 16 9.27707 15.6741 10.4832 15.0224C11.6889 14.3708 12.599 13.4459 13.2135 12.2471C13.8276 11.0488 14.1349 9.63305 14.1349 7.99996C14.1349 6.36725 13.8276 4.95153 13.2135 3.75275ZM29.6074 16V0H23.495C21.7871 0 20.3303 0.325808 19.1242 0.977468C17.9184 1.62921 17.0083 2.55445 16.3939 3.75275C15.7797 4.95153 15.4725 6.36725 15.4725 7.99996C15.4725 9.63305 15.7797 11.0488 16.3939 12.2471C17.0083 13.4459 17.9184 14.3708 19.1242 15.0224C20.3303 15.6741 21.7871 16 23.495 16H29.6074ZM23.54 2.60668H26.5736V13.3932H23.54C21.9669 13.3932 20.7534 12.9325 19.8995 12.0112C19.0455 11.0899 18.6186 9.75275 18.6186 7.99996C18.6186 6.24716 19.0455 4.91004 19.8995 3.98873C20.7534 3.06742 21.9669 2.60668 23.54 2.60668ZM53.4674 13.3932H56.5011V2.60668H53.4674C51.8941 2.60668 50.6807 3.06742 49.8269 3.98873C48.9727 4.91004 48.5458 6.24716 48.5458 7.99996C48.5458 9.75275 48.9727 11.0899 49.8269 12.0112C50.6807 12.9325 51.8941 13.3932 53.4674 13.3932ZM53.4221 0H59.5347V16H53.4221C51.7145 16 50.2577 15.6741 49.0512 15.0224C47.8456 14.3708 46.9357 13.4459 46.3211 12.2471C45.7068 11.0488 45.3999 9.63305 45.3999 7.99996C45.3999 6.36725 45.7068 4.95153 46.3211 3.75275C46.9357 2.55445 47.8456 1.62921 49.0512 0.977468C50.2577 0.325808 51.7145 0 53.4221 0ZM39.7485 8C39.7485 9.63306 39.4412 11.0488 38.8271 12.2472C38.2127 13.4459 37.3026 14.3708 36.0968 15.0224C34.8907 15.6741 33.4339 16 31.726 16H31.108V13.3932H31.6811C33.2541 13.3932 34.4676 12.9325 35.3216 12.0112C36.1755 11.0899 36.6025 9.75279 36.6025 8C36.6025 6.36694 36.9097 4.95118 37.5238 3.75284C38.1382 2.55411 39.0484 1.62921 40.2541 0.977511C41.4602 0.325852 42.917 0 44.6251 0H45.2428V2.60677H44.67C43.0968 2.60677 41.8833 3.06742 41.0294 3.98878C40.1755 4.91013 39.7485 6.24716 39.7485 8Z" fill="#ABE6FF"/>
</svg>
